<?xml version="1.0" standalone="no"?>
<!DOCTYPE svg PUBLIC "-//W3C//DTD SVG 1.1//EN" "http://www.w3.org/Graphics/SVG/1.1/DTD/svg11.dtd" >
<svg xmlns="http://www.w3.org/2000/svg">
<metadata></metadata>
<defs>
<font id="nimbus_sans_lregular" horiz-adv-x="1138" >
<font-face units-per-em="2048" ascent="1638" descent="-410" />
<missing-glyph horiz-adv-x="569" />
<glyph horiz-adv-x="0" />
<glyph unicode="&#xd;" horiz-adv-x="569" />
<glyph unicode=" "  horiz-adv-x="569" />
<glyph unicode="&#x09;" horiz-adv-x="569" />
<glyph unicode="&#xa0;" horiz-adv-x="569" />
<glyph unicode="!" horiz-adv-x="569" d="M254 0v213h172v-213h-172zM256 801v692h170v-692l-45 -457h-80z" />
<glyph unicode="&#x22;" horiz-adv-x="727" d="M106 1225v227h191v-227l-55 -275h-80zM434 1225v227h191v-227l-56 -275h-80z" />
<glyph unicode="#" d="M29 391v139h233l64 357h-222v139h248l74 401h156l-74 -401h256l72 401h157l-73 -401h190v-139h-217l-64 -357h215v-139h-239l-80 -432h-156l78 432h-254l-80 -432h-155l78 432h-207zM418 530h256l63 357h-254z" />
<glyph unicode="$" d="M68 426h161q4 -49 8.5 -83t10.5 -56.5t13 -40t20 -35.5q35 -47 91 -77t126 -40v557q-57 18 -98.5 31.5t-72 26t-53 26t-43.5 29.5q-137 102 -137 293q0 176 102.5 280.5t301.5 128.5v111h120v-111q186 -14 292 -120.5t106 -282.5h-162q-2 113 -66.5 184.5t-169.5 75.5 v-510q74 -23 118 -36t73 -24.5t47 -20.5t39 -21q86 -53 126 -128t40 -184q0 -125 -52.5 -225t-146.5 -156q-49 -29 -106.5 -44t-137.5 -21v-211h-120v211q-217 14 -329 136t-101 337zM260 1077q0 -184 238 -248v492q-115 -16 -176.5 -78.5t-61.5 -165.5zM618 94 q70 8 113 25.5t80 56.5q82 82 82 199q0 51 -13.5 89t-45 67.5t-85 54t-131.5 47.5v-539z" />
<glyph unicode="%" horiz-adv-x="1820" d="M59 1053q0 72 28 135t75 111.5t110.5 76t135.5 27.5q74 0 137 -27.5t111.5 -75t75 -113t26.5 -138.5q0 -72 -28 -134.5t-75 -109.5t-110.5 -75t-134.5 -28q-74 0 -137.5 28t-110.5 75t-75 111.5t-28 136.5zM201 1053q0 -43 16 -81t45 -65.5t67 -44t81 -16.5t79.5 16.5 t65.5 44t45 64.5t16 80q0 88 -60 148.5t-148 60.5q-43 0 -81 -16.5t-66 -44.5t-44 -65.5t-16 -80.5zM438 -41l809 1493h135l-809 -1493h-135zM1061 311q0 72 27.5 135.5t74.5 110.5t110.5 74.5t135.5 27.5q74 0 137.5 -27.5t111.5 -74.5t74.5 -111.5t26.5 -138.5 q0 -72 -27.5 -134t-74.5 -109.5t-110.5 -75t-135.5 -27.5q-74 0 -137.5 27.5t-110.5 75t-74.5 111t-27.5 136.5zM1202 311q0 -43 16.5 -80.5t44 -65.5t66.5 -44.5t82 -16.5t80 16.5t65.5 44.5t45 64.5t16.5 77.5q0 88 -60.5 148.5t-148.5 60.5q-43 0 -81 -16.5t-65.5 -44 t-44 -64.5t-16.5 -80z" />
<glyph unicode="&#x26;" horiz-adv-x="1366" d="M106 360q0 70 15.5 126.5t54.5 107.5t102.5 99t159.5 104q-49 61 -80.5 107t-50 84t-27 72t-8.5 70q0 68 27 126.5t75 102.5t111.5 68.5t137.5 24.5t134 -23.5t105 -66.5t69.5 -102.5t24.5 -129.5q0 -55 -14 -101t-47 -87t-87 -82t-134 -86l272 -334q31 55 48.5 122 t15.5 122h164q0 -92 -31 -189.5t-88 -185.5l250 -309h-224l-127 160q-63 -59 -98 -89t-68 -51q-53 -33 -120.5 -50t-141.5 -17q-94 0 -172 28.5t-133 83t-85 129t-30 166.5zM279 375q0 -55 21.5 -102.5t57 -83t85 -56t104.5 -20.5q80 0 151.5 37.5t157.5 130.5l-328 409 q-70 -45 -118 -84t-76.5 -75.5t-41.5 -74.5t-13 -81zM440 1133q0 -29 5.5 -50.5t20.5 -48t43 -62.5t75 -89q117 72 164 128t47 124q0 76 -50.5 125t-128.5 49q-80 0 -128 -48.5t-48 -127.5z" />
<glyph unicode="'" horiz-adv-x="391" d="M98 1225v227h193v-227l-55 -275h-82z" />
<glyph unicode="(" horiz-adv-x="681" d="M150 530q0 121 23.5 249t66.5 253t104.5 243t138.5 218h113q-135 -219 -208 -468t-73 -495q0 -248 73 -495.5t208 -468.5h-113q-78 100 -139 218t-104 244t-66.5 254t-23.5 248z" />
<glyph unicode=")" horiz-adv-x="681" d="M78 -434q135 219 207.5 468t72.5 494q0 248 -72.5 496t-207.5 469h112q76 -100 138.5 -218t105.5 -244t66.5 -254t23.5 -249t-23.5 -248.5t-66.5 -252.5t-105.5 -243t-138.5 -218h-112z" />
<glyph unicode="*" horiz-adv-x="796" d="M82 1221l39 120l217 -77l-10 229h129l-11 -229l218 77l38 -120l-221 -62l144 -182l-105 -74l-127 191l-129 -191l-102 74l141 182z" />
<glyph unicode="+" horiz-adv-x="1196" d="M102 403v144h424v424h144v-424h424v-144h-424v-423h-144v423h-424z" />
<glyph unicode="," horiz-adv-x="569" d="M178 0v213h215v-246q0 -268 -215 -268v78q72 4 97.5 42t25.5 144v37h-123z" />
<glyph unicode="-" horiz-adv-x="681" d="M94 492v147h488v-147h-488z" />
<glyph unicode="." horiz-adv-x="569" d="M178 0v213h213v-213h-213z" />
<glyph unicode="/" horiz-adv-x="569" d="M-16 -41l485 1534h113l-486 -1534h-112z" />
<glyph unicode="0" d="M88 702q0 399 141 590q57 76 144.5 118t189.5 42q104 0 190.5 -41t143.5 -119q72 -98 106.5 -243.5t34.5 -358.5q0 -360 -121.5 -548.5t-353.5 -188.5q-236 0 -355.5 189.5t-119.5 559.5zM272 700q0 -598 287 -598q152 0 223.5 146.5t71.5 458.5q0 585 -291 585 t-291 -592z" />
<glyph unicode="1" d="M209 1034v129q104 12 167.5 27.5t103.5 46.5t63.5 81t48.5 134h119v-1452h-181v1034h-321z" />
<glyph unicode="2" d="M70 0q6 119 27.5 208t68.5 161.5t121.5 133t189.5 126.5l189 106q197 113 196 287q0 57 -21.5 107.5t-60.5 87t-91 57t-114 20.5q-86 0 -152.5 -38.5t-100.5 -110.5q-16 -35 -25.5 -80t-13.5 -117h-181q2 115 22.5 190.5t61.5 135.5q123 178 396 178q102 0 188 -30.5 t147.5 -87t95.5 -135.5t34 -173q0 -270 -308 -438l-204 -111q-68 -39 -114 -73.5t-77 -70.5t-48 -73t-24 -82h764v-178h-966z" />
<glyph unicode="3" d="M66 422h180q10 -160 83.5 -234.5t221.5 -74.5q141 0 221 76.5t80 213.5q0 264 -301 265l-76 -2h-22v153q98 2 153.5 9.5t91.5 23.5q57 27 84 73t27 122q0 117 -67.5 182t-188.5 65q-86 0 -151.5 -35.5t-96.5 -99.5q-14 -33 -20 -72.5t-9 -103.5h-180q10 469 455 469 q209 0 325.5 -105.5t116.5 -293.5q0 -219 -202 -301q131 -45 188 -126t57 -220q0 -102 -34.5 -186.5t-99 -144t-155 -91t-202.5 -31.5q-229 0 -345 113.5t-134 355.5z" />
<glyph unicode="4" d="M57 348v191l660 913h133v-942h215v-162h-215v-348h-180v348h-613zM215 510h455v635z" />
<glyph unicode="5" d="M72 356h180q63 -244 297 -243q147 0 232 89t85 247q0 162 -84 255t-231 93q-86 0 -145.5 -30t-122.5 -105h-166l108 790h750v-178h-604l-58 -406q63 47 127 67.5t142 20.5q104 0 190 -34.5t148.5 -99t96.5 -153.5t34 -196q0 -115 -37 -211t-102.5 -164.5t-156.5 -106.5 t-202 -38q-129 0 -234.5 48t-166.5 134q-29 41 -46.5 88t-33.5 133z" />
<glyph unicode="6" d="M88 662q0 199 32 338t99 245q66 98 167 152.5t222 54.5q166 0 275.5 -99.5t136.5 -279.5h-180q-23 104 -85.5 161.5t-158.5 57.5q-156 0 -239 -141t-85 -410q119 162 334 162q98 0 179 -33.5t140.5 -95t92.5 -146.5t33 -186q0 -106 -36 -196t-98.5 -154.5t-149.5 -101.5 t-192 -37q-121 0 -213 46t-151 134q-66 96 -94.5 220t-28.5 309zM283 438q0 -70 22.5 -129t62.5 -103t93 -68.5t117 -24.5q61 0 114 23.5t92 65.5t60.5 100t21.5 126q0 147 -75.5 231t-206.5 84q-68 0 -123 -22.5t-95 -62.5t-61.5 -96t-21.5 -124z" />
<glyph unicode="7" d="M94 1274v178h971v-152q-123 -164 -219 -321.5t-169 -317t-122 -323.5t-80 -338h-192q41 178 90 330.5t118.5 300t164 303.5t223.5 340h-785z" />
<glyph unicode="8" d="M76 403q0 242 248 361q-55 35 -93 66.5t-62 67.5t-33 76t-9 91q0 86 31.5 156.5t90 122t138.5 80t176 28.5t177 -28.5t138.5 -79t89 -122t31.5 -157.5q0 -51 -10 -92t-32.5 -76t-61.5 -66.5t-94 -66.5q250 -119 250 -363q0 -98 -36 -181t-100.5 -142.5t-154.5 -92 t-197 -32.5q-109 0 -198 32.5t-153.5 92t-100 142.5t-35.5 183zM260 399q0 -129 83 -207.5t216 -78.5q141 0 224 77.5t83 208.5q0 63 -22.5 115.5t-62.5 90.5t-95 58.5t-123 20.5q-137 0 -220 -78t-83 -207zM311 1063q0 -104 67.5 -165.5t184.5 -61.5q115 0 183.5 61 t68.5 164q0 106 -67.5 168.5t-184.5 62.5t-184.5 -62.5t-67.5 -166.5z" />
<glyph unicode="9" d="M78 963q0 106 36 196t98 154.5t149.5 101.5t191.5 37q121 0 214 -46t153 -134q63 -96 92.5 -221t29.5 -308q0 -199 -31.5 -338t-99.5 -245q-66 -98 -167 -152.5t-224 -54.5q-166 0 -275.5 99.5t-135.5 279.5h180q23 -104 85 -161.5t158 -57.5q156 0 239 141t85 410 q-72 -86 -149.5 -124t-182.5 -38q-98 0 -180 33.5t-141.5 95t-92 145.5t-32.5 187zM262 977q0 -147 76 -231t207 -84q68 0 123 22.5t95 62t61.5 96t21.5 124.5q0 70 -22.5 130t-62.5 104t-93.5 68.5t-116.5 24.5t-116.5 -23.5t-91.5 -65.5t-59.5 -100t-21.5 -128z" />
<glyph unicode=":" horiz-adv-x="569" d="M225 0v213h213v-213h-213zM225 860v213h213v-213h-213z" />
<glyph unicode=";" horiz-adv-x="569" d="M225 0v213h215v-246q0 -268 -215 -268v78q72 4 97.5 42t25.5 144v37h-123zM227 860v213h213v-213h-213z" />
<glyph unicode="&#x3c;" horiz-adv-x="1196" d="M92 406v141l1002 424v-162l-807 -330l807 -336v-161z" />
<glyph unicode="=" horiz-adv-x="1196" d="M102 227v144h992v-144h-992zM102 580v143h992v-143h-992z" />
<glyph unicode="&#x3e;" horiz-adv-x="1196" d="M102 -18v161l807 330l-807 336v162l1002 -424v-141z" />
<glyph unicode="?" d="M158 1038q0 479 448 480q100 0 180 -28t137.5 -79t88 -124t30.5 -163q0 -51 -10 -95t-34.5 -87t-63.5 -88t-96 -96q-53 -49 -85 -82t-48.5 -59.5t-22.5 -53t-6 -59.5v-96h-184v112q0 55 12 95t45 83q12 18 21.5 29.5t23.5 26t39.5 37t71.5 63.5q82 72 117.5 135.5 t35.5 134.5q0 104 -71.5 169t-190.5 65q-139 0 -201.5 -77t-62.5 -243h-174zM492 0v213h184v-213h-184z" />
<glyph unicode="@" horiz-adv-x="2078" d="M70 528q0 100 22.5 200.5t64.5 194t101 178.5t135 152q68 61 149 110.5t169 83.5t180 52.5t184 18.5q178 0 337 -60.5t277.5 -164t188.5 -243t70 -294.5q0 -125 -48.5 -248t-138.5 -221q-152 -170 -370 -170q-197 0 -226 157q-72 -78 -140.5 -112.5t-150.5 -34.5 q-72 0 -133 28.5t-105 79t-69.5 119t-25.5 148.5q0 111 44 214t116.5 181t168 125t197.5 47q172 0 250 -178l45 135h170l-184 -573q-25 -72 -25 -103q0 -37 30.5 -63.5t71.5 -26.5q66 0 127.5 40t109.5 105.5t77.5 149.5t29.5 174q0 129 -57 243.5t-155.5 201t-229.5 136.5 t-278 50q-162 0 -308.5 -64.5t-257 -174t-175 -255t-64.5 -307.5q0 -147 59 -273t161.5 -219.5t243 -146.5t302.5 -53q86 0 178 15.5t219 49.5l57 -137q-113 -41 -230.5 -63.5t-232.5 -22.5q-195 0 -364.5 64.5t-295.5 175t-198.5 260t-72.5 319.5zM725 500 q0 -51 15.5 -95.5t43 -77t64.5 -51t80 -18.5q59 0 115.5 37t97.5 102q18 29 36.5 73t34 92t24.5 95.5t11 83.5q4 84 -51 140.5t-141 56.5q-66 0 -125.5 -36t-104.5 -97.5t-72.5 -140t-27.5 -164.5z" />
<glyph unicode="A" horiz-adv-x="1366" d="M35 0l532 1493h246l524 -1493h-213l-153 449h-576l-157 -449h-203zM442 608h476l-230 680z" />
<glyph unicode="B" horiz-adv-x="1366" d="M162 0v1493h606q205 0 323.5 -101.5t118.5 -277.5q0 -229 -206 -326q143 -55 207.5 -141t64.5 -221q0 -180 -115 -301q-117 -125 -325 -125h-674zM352 168h465q127 0 197.5 67.5t70.5 188.5q0 123 -70.5 190.5t-197.5 67.5h-465v-514zM352 850h369q299 0 299 237 q0 238 -299 238h-369v-475z" />
<glyph unicode="C" horiz-adv-x="1478" d="M98 729q0 182 53.5 337t155.5 265q168 186 473 187q487 0 576 -488h-195q-18 86 -43.5 139.5t-70.5 92.5q-47 41 -124 64.5t-165 23.5q-109 0 -196 -43t-147.5 -123t-93 -195t-32.5 -258q0 -139 33.5 -251.5t97 -192.5t154 -123t200.5 -43q125 0 216 51t138 150 q20 45 35 97t27 126h196q-68 -592 -614 -592q-287 0 -459 174q-104 111 -159.5 263.5t-55.5 338.5z" />
<glyph unicode="D" horiz-adv-x="1478" d="M182 0v1493h576q141 0 254.5 -51t191.5 -147.5t120 -234.5t42 -312t-42 -312.5t-121 -236t-191.5 -148.5t-253.5 -51h-576zM373 168h352q223 0 337 145.5t114 431.5q0 287 -114 433.5t-337 146.5h-352v-1157z" />
<glyph unicode="E" horiz-adv-x="1366" d="M184 0v1493h1035v-168h-844v-477h813v-168h-813v-512h880v-168h-1071z" />
<glyph unicode="F" horiz-adv-x="1251" d="M184 0v1493h1002v-168h-811v-477h712v-168h-712v-680h-191z" />
<glyph unicode="G" horiz-adv-x="1593" d="M90 731q0 203 69.5 369t200.5 274q174 143 447 144q258 0 421 -124t204 -354h-195q-31 145 -145.5 227.5t-286.5 82.5q-119 0 -215 -43t-165 -123t-106.5 -192.5t-37.5 -250.5q0 -139 42 -264t115 -205q66 -72 164 -111.5t213 -39.5q102 0 188.5 33.5t148.5 95t97 145.5 t35 185v41h-455v167h623v-796h-121l-47 198q-111 -123 -233.5 -180t-276.5 -57q-152 0 -277.5 57.5t-216 159.5t-140.5 245.5t-50 315.5z" />
<glyph unicode="H" horiz-adv-x="1478" d="M170 0v1493h190v-645h768v645h191v-1493h-191v680h-766v-680h-192z" />
<glyph unicode="I" horiz-adv-x="569" d="M205 0v1493h192v-1493h-192z" />
<glyph unicode="J" horiz-adv-x="1024" d="M35 348v131h194v-96q0 -131 57.5 -200.5t166.5 -69.5q57 0 105 24.5t77 67.5q27 39 37 93t10 144v1051h190v-1120q0 -195 -112.5 -307.5t-308.5 -112.5q-193 0 -304.5 106.5t-111.5 288.5z" />
<glyph unicode="K" horiz-adv-x="1366" d="M162 0v1493h190v-756l744 756h245l-608 -608l615 -885h-226l-526 766l-244 -244v-522h-190z" />
<glyph unicode="L" d="M164 0v1493h190v-1325h738v-168h-928z" />
<glyph unicode="M" horiz-adv-x="1705" d="M154 0v1493h264l442 -1300l434 1300h265v-1493h-181v1251l-420 -1251h-200l-424 1251v-1251h-180z" />
<glyph unicode="N" horiz-adv-x="1478" d="M156 0v1493h206l781 -1221v1221h180v-1493h-215l-772 1210v-1210h-180z" />
<glyph unicode="O" horiz-adv-x="1593" d="M78 735q0 174 52 318.5t146.5 248t227.5 160t293 56.5q164 0 298 -56.5t228 -161t145.5 -251t51.5 -326.5q0 -184 -68 -346t-190 -266q-92 -78 -209 -118t-254 -40q-162 0 -295 56.5t-227.5 158.5t-146.5 246.5t-52 320.5zM268 735q0 -139 38 -251.5t107.5 -193.5 t167 -125t218.5 -44q119 0 216 44t166.5 124t108.5 191.5t39 246.5q0 141 -38 257t-107.5 197t-167.5 125t-219 44q-119 0 -216.5 -44t-167 -125t-107.5 -195t-38 -251z" />
<glyph unicode="P" horiz-adv-x="1366" d="M186 0v1493h617q223 0 342 -113.5t119 -324.5q0 -104 -31 -179t-98 -137q-119 -106 -289 -106h-469v-633h-191zM377 801h397q137 0 214 69.5t77 192.5t-77 192.5t-214 69.5h-397v-524z" />
<glyph unicode="Q" horiz-adv-x="1593" d="M78 735q0 176 52 320.5t146.5 247t227.5 159t295 56.5t294 -56.5t227 -159t147.5 -246t52.5 -317.5q0 -352 -211 -583l192 -158l-96 -119l-215 178q-92 -53 -185.5 -78.5t-205.5 -25.5q-162 0 -295 56.5t-227.5 159.5t-146.5 246.5t-52 319.5zM268 735q0 -139 38 -251.5 t107.5 -193.5t167 -125t216.5 -44q68 0 124 12t121 45l-151 127l94 115l182 -150q84 94 123 207t39 260q0 137 -38 250t-107.5 194t-167.5 125t-217 44q-121 0 -218.5 -44t-167 -125t-107.5 -195t-38 -251z" />
<glyph unicode="R" horiz-adv-x="1478" d="M190 0v1493h689q223 0 338.5 -102.5t115.5 -296.5q0 -129 -54 -211t-181 -146q61 -27 100 -56.5t61.5 -72.5t32 -105.5t8.5 -154.5q2 -74 6.5 -124t13.5 -82.5t26.5 -54t44.5 -40.5v-47h-232q-20 47 -31.5 110.5t-11.5 133.5l2 133q0 139 -58.5 202.5t-187.5 63.5h-491 v-643h-191zM381 811h461q154 0 223.5 61.5t69.5 196.5q0 133 -70 194.5t-223 61.5h-461v-514z" />
<glyph unicode="S" horiz-adv-x="1366" d="M98 475h181v-6q0 -135 83 -229q55 -61 137.5 -90t200.5 -29q186 0 275 63q47 35 76.5 91.5t29.5 115.5q0 88 -65.5 146.5t-208.5 95.5l-371 98q-293 76 -293 348q0 100 37 182t105.5 138.5t167 87.5t221.5 31q334 0 473 -205q74 -104 74 -232v-26h-181q-2 147 -97 225 t-275 78q-152 0 -243 -68.5t-91 -183.5q0 -86 55 -135t191 -86l374 -101q154 -41 236 -138t82 -236q0 -98 -44 -190.5t-120 -151.5q-72 -55 -178.5 -85t-241.5 -30q-358 0 -512 225q-39 59 -57.5 129t-20.5 168z" />
<glyph unicode="T" horiz-adv-x="1251" d="M43 1325v168h1171v-168h-489v-1325h-190v1325h-492z" />
<glyph unicode="U" horiz-adv-x="1478" d="M174 444v1049h191v-1049q0 -86 26.5 -144t81.5 -101q109 -78 272 -78q180 0 282.5 86t102.5 237v1049h191v-1049q0 -113 -41 -202.5t-115.5 -154t-181 -99.5t-238.5 -35q-133 0 -238.5 33.5t-179 98.5t-113.5 155t-40 204z" />
<glyph unicode="V" horiz-adv-x="1366" d="M61 1493h205l439 -1264l413 1264h203l-518 -1493h-205z" />
<glyph unicode="W" horiz-adv-x="1933" d="M45 1493h213l281 -1212l331 1212h205l340 -1212l275 1212h213l-379 -1493h-209l-344 1227l-334 -1227h-209z" />
<glyph unicode="X" horiz-adv-x="1366" d="M45 0l528 766l-495 727h231l383 -586l385 586h228l-504 -727l528 -766h-235l-408 623l-410 -623h-231z" />
<glyph unicode="Y" horiz-adv-x="1366" d="M27 1493h235l438 -727l426 727h228l-561 -907v-586h-191v586z" />
<glyph unicode="Z" horiz-adv-x="1251" d="M57 0v168l897 1157h-839v168h1075v-172l-893 -1153h897v-168h-1137z" />
<glyph unicode="[" horiz-adv-x="569" d="M131 -434v1927h381v-147h-211v-1633h211v-147h-381z" />
<glyph unicode="\" horiz-adv-x="569" d="M-16 1493h112l486 -1534h-113z" />
<glyph unicode="]" horiz-adv-x="569" d="M47 -287h211v1633h-211v147h381v-1927h-381v147z" />
<glyph unicode="^" horiz-adv-x="960" d="M90 674l313 778h150l317 -778h-141l-250 614l-248 -614h-141z" />
<glyph unicode="_" d="M-45 -258h1229v-102h-1229v102z" />
<glyph unicode="`" horiz-adv-x="681" d="M45 1516h231l197 -304h-123z" />
<glyph unicode="a" d="M86 270q0 213 199 291q25 8 46 15.5t56 13.5t89 13t142 20q102 12 140.5 38.5t38.5 79.5v45q0 78 -61.5 119t-178.5 41q-121 0 -181.5 -46t-70.5 -144h-172q4 84 21.5 136t58.5 93q55 57 145.5 88t202.5 31q201 0 303.5 -75t102.5 -218v-631q0 -84 92 -84h15t22 4v-129 q-43 -10 -65.5 -14t-51.5 -4q-84 0 -125 37t-51 121q-92 -84 -177 -121t-188 -37q-164 0 -258 85t-94 232zM264 274q0 -82 55.5 -127t155.5 -45q147 0 254 97q39 35 53.5 65.5t14.5 73.5v192q-23 -10 -42.5 -17t-48 -13t-72.5 -13.5t-112 -15.5q-139 -20 -198.5 -65.5 t-59.5 -131.5z" />
<glyph unicode="b" d="M111 0v1493h170v-565q59 92 140 134t191 42q106 0 191.5 -39t145 -111.5t91 -177t31.5 -235.5q0 -133 -32.5 -242t-94 -185.5t-147.5 -118.5t-193 -42q-219 0 -340 184v-137h-153zM281 528q0 -94 21.5 -170.5t60 -131t94 -84t123.5 -29.5q70 0 127 29.5t99 84t64.5 129 t22.5 166.5q0 193 -85 307.5t-228 114.5q-68 0 -123.5 -29.5t-94 -84t-60 -131t-21.5 -171.5z" />
<glyph unicode="c" horiz-adv-x="1024" d="M63 518q0 133 34 241.5t96.5 185.5t150.5 118t197 41q117 0 210 -45t146 -123q29 -43 45 -95.5t23 -127.5h-172q-16 113 -81 173t-173 60q-141 0 -219 -112.5t-78 -315.5q0 -193 79.5 -300t221.5 -107q219 0 262 258h172q-16 -199 -131 -307.5t-307 -108.5 q-109 0 -197 40t-149.5 113.5t-95.5 178t-34 233.5z" />
<glyph unicode="d" d="M53 539q0 129 33 233.5t93.5 178t145.5 113.5t189 40q109 0 193 -42t137 -124v555h170v-1493h-152v141q-70 -100 -150.5 -144t-191.5 -44q-109 0 -195.5 41t-147 116.5t-92.5 184t-32 244.5zM231 528q0 -94 22.5 -170.5t63.5 -131t98.5 -84t129.5 -29.5q68 0 123 29.5 t94 83t60.5 130t21.5 168.5q0 195 -81 307.5t-220 112.5q-70 0 -127.5 -29.5t-98.5 -84t-63.5 -131t-22.5 -171.5z" />
<glyph unicode="e" d="M82 522q0 133 35 240.5t99.5 183.5t154.5 117t202 41q156 0 274 -79t165 -218q23 -57 31 -134t8 -194h-791q2 -84 15.5 -137t46.5 -100q45 -63 110.5 -97t142.5 -34q209 0 281 215h172q-33 -176 -152.5 -274.5t-306.5 -98.5q-115 0 -205 39t-152 112.5t-96 179t-34 238.5 zM264 618h602q0 72 -21.5 132.5t-60.5 103.5t-93 67.5t-120 24.5q-129 0 -213 -89t-94 -239z" />
<glyph unicode="f" horiz-adv-x="569" d="M37 934v139h143v182q0 117 66.5 180.5t185.5 63.5q27 0 47.5 -2t48.5 -8v-141q-29 2 -39 2h-20q-119 0 -119 -109v-168h178v-139h-178v-934h-170v934h-143z" />
<glyph unicode="g" d="M59 518q0 131 33 239.5t93.5 185.5t144.5 119t186 42q104 0 183 -45t145 -141v155h157v-897q0 -188 -25.5 -300t-86.5 -185q-53 -66 -149.5 -101.5t-217.5 -35.5q-190 0 -301.5 85t-126.5 238h174q8 -47 22.5 -74.5t47.5 -50.5q35 -29 84 -42t106 -13q78 0 140.5 26.5 t97.5 73.5q33 47 47 115t14 178v55q-72 -102 -148.5 -147t-176.5 -45q-86 0 -167 38t-140 105q-135 158 -136 422zM238 528q0 -197 78.5 -307t220.5 -110q135 0 212.5 109.5t77.5 301.5q0 203 -76.5 313.5t-215.5 110.5t-218 -111.5t-79 -306.5z" />
<glyph unicode="h" d="M143 0v1493h170v-567q37 49 75 82.5t79 55t87 31t103 9.5q158 0 248 -79t90 -214v-811h-170v743q0 111 -69 164q-63 47 -152 47q-133 0 -212 -98t-79 -264v-592h-170z" />
<glyph unicode="i" horiz-adv-x="454" d="M135 1278v215h172v-215h-172zM137 0v1073h170v-1073h-170z" />
<glyph unicode="j" horiz-adv-x="454" d="M-37 -295q16 -2 23.5 -2h17.5q80 0 109.5 30.5t29.5 110.5v1229h170v-1296q0 -223 -293 -223q-20 0 -30 1t-27 5v145zM143 1278v215h170v-215h-170z" />
<glyph unicode="k" horiz-adv-x="1024" d="M119 0v1493h170v-875l454 455h220l-373 -371l438 -702h-211l-362 582l-166 -164v-418h-170z" />
<glyph unicode="l" horiz-adv-x="454" d="M139 0v1493h172v-1493h-172z" />
<glyph unicode="m" horiz-adv-x="1705" d="M143 0v1073h158v-151q68 98 144.5 140t185.5 42q104 0 172.5 -39t116.5 -125q37 45 73.5 77t75.5 51t83 27.5t97 8.5q152 0 232 -77t80 -222v-805h-172v739q0 102 -52.5 158.5t-146.5 56.5q-53 0 -98 -21.5t-80 -60t-54.5 -90t-19.5 -108.5v-674h-172v739 q0 104 -51 159.5t-148 55.5q-53 0 -98 -21.5t-80 -60t-54.5 -90t-19.5 -108.5v-674h-172z" />
<glyph unicode="n" d="M143 0v1073h158v-180q72 113 154 162t202 49q156 0 248 -79t92 -214v-811h-170v743q0 98 -59 154.5t-162 56.5q-133 0 -212 -98t-79 -264v-592h-172z" />
<glyph unicode="o" d="M74 528q0 272 127 424t356 152q236 0 361.5 -151.5t125.5 -432.5q0 -133 -32.5 -237.5t-96 -178t-153.5 -112.5t-203 -39q-229 0 -357 151.5t-128 423.5zM252 528q0 -197 82 -307t225 -110q141 0 224 109.5t83 301.5q0 201 -81 312.5t-226 111.5q-143 0 -225 -110.5 t-82 -307.5z" />
<glyph unicode="p" d="M111 -446v1519h157v-162q121 193 342 193q106 0 191.5 -41t146 -117t92 -184.5t31.5 -243.5q0 -129 -32.5 -233.5t-92 -178t-144.5 -113.5t-190 -40q-104 0 -183 38t-146 122v-559h-172zM283 528q0 -94 21.5 -170.5t60 -131t94 -84t123.5 -29.5q70 0 127 29.5t98 84 t63.5 129t22.5 166.5q0 96 -22.5 174t-62.5 133.5t-98 85t-128 29.5q-68 0 -123.5 -29.5t-94 -84t-60 -131t-21.5 -171.5z" />
<glyph unicode="q" d="M53 516q0 133 33 241.5t94.5 185.5t147.5 119t192 42t194.5 -44t147.5 -130v143h152v-1519h-170v569q-59 -88 -139 -129t-193 -41q-106 0 -191 39t-144.5 111.5t-91.5 177t-32 235.5zM231 528q0 -94 22.5 -170.5t63.5 -131t98.5 -84t129.5 -29.5q68 0 123 29.5t94 83 t60.5 129t21.5 167.5q0 197 -81 309.5t-218 112.5q-72 0 -129.5 -29.5t-98.5 -84t-63.5 -131t-22.5 -171.5z" />
<glyph unicode="r" horiz-adv-x="681" d="M141 0v1073h158v-194q74 121 141.5 173t151.5 52q16 0 29.5 -1t35.5 -5v-174q-47 0 -80.5 -3t-60.5 -10.5t-48.5 -18.5t-41.5 -28q-57 -47 -85 -121.5t-28 -185.5v-557h-172z" />
<glyph unicode="s" horiz-adv-x="1024" d="M70 319h180q8 -59 19.5 -88.5t33.5 -52.5q33 -33 88 -50t121 -17q113 0 181.5 46t68.5 124q0 57 -38 91t-128 56l-160 39q-96 23 -160.5 50.5t-104.5 64t-57.5 84t-17.5 110.5q0 74 29 134.5t83 103.5t130 66.5t170 23.5q186 0 286.5 -85t102.5 -245h-180 q-6 172 -215 172q-104 0 -166 -43t-62 -119q0 -57 47.5 -93t151.5 -60l164 -39q160 -39 231.5 -108.5t71.5 -190.5q0 -78 -30.5 -140.5t-89 -107.5t-140.5 -68.5t-182 -23.5q-416 0 -428 366z" />
<glyph unicode="t" horiz-adv-x="569" d="M29 934v139h145v295h170v-295h176v-139h-176v-735q0 -57 19.5 -77t74.5 -20q49 0 82 9v-144q-43 -8 -73.5 -11t-65.5 -3q-100 0 -153.5 43t-53.5 127v811h-145z" />
<glyph unicode="u" d="M133 246v827h170v-760q0 -98 59.5 -154.5t161.5 -56.5q135 0 214 98.5t79 264.5v608h170v-1073h-153v150q-76 -106 -158 -151.5t-201 -45.5q-158 0 -250 79t-92 214z" />
<glyph unicode="v" horiz-adv-x="1024" d="M20 1073h193l287 -870l303 870h192l-411 -1073h-187z" />
<glyph unicode="w" horiz-adv-x="1478" d="M12 1073h189l219 -835l205 835h209l210 -835l213 835h193l-315 -1073h-195l-217 842l-207 -842h-192z" />
<glyph unicode="x" horiz-adv-x="1024" d="M35 0l379 547l-359 526h195l258 -389l258 389h192l-360 -518l371 -555h-199l-268 412l-273 -412h-194z" />
<glyph unicode="y" horiz-adv-x="1024" d="M41 1073h182l275 -835l297 835h184l-477 -1298q-84 -221 -277 -221q-63 0 -114 26v154q29 -6 48 -9.5t42 -3.5q53 0 83.5 24t53.5 81l65 170z" />
<glyph unicode="z" horiz-adv-x="1024" d="M63 0v154l642 770h-599v149h801v-151l-637 -772h666v-150h-873z" />
<glyph unicode="{" horiz-adv-x="684" d="M88 459v141q45 8 76 27.5t49 52.5t26.5 82t8.5 121v342q0 129 58.5 198.5t164.5 69.5h94v-133h-30q-76 0 -102.5 -28.5t-26.5 -108.5v-371q0 -141 -37 -213t-131 -109q86 -41 127 -117.5t41 -205.5v-371q0 -80 26.5 -108.5t102.5 -28.5h30v-133h-94q-106 0 -164.5 69.5 t-58.5 198.5v342q0 141 -35 202.5t-125 80.5z" />
<glyph unicode="|" horiz-adv-x="532" d="M205 -434v1927h123v-1927h-123z" />
<glyph unicode="}" horiz-adv-x="684" d="M59 -301h33q78 0 104.5 28.5t26.5 108.5v371q0 129 41 205.5t127 115.5q-86 41 -127 119t-41 205v371q0 80 -26.5 108.5t-104.5 28.5h-33v133h97q109 0 167 -69.5t58 -198.5v-342q0 -141 34 -203t122 -80v-141q-88 -18 -122 -80t-34 -203v-342q0 -129 -58.5 -198.5 t-166.5 -69.5h-97v133z" />
<glyph unicode="~" horiz-adv-x="1196" d="M154 600q16 297 221 297q59 0 110 -33l240 -141q57 -35 102 -35q104 0 105 127v27h108v-33q0 -121 -57 -190.5t-158 -69.5q-39 0 -82 14.5t-84 38.5l-200 129q-16 10 -44 19.5t-44 9.5q-29 0 -53.5 -19.5t-38.5 -54.5q-6 -16 -9.5 -33.5t-7.5 -52.5h-108z" />
<glyph unicode="&#xa1;" horiz-adv-x="681" d="M248 860v213h172v-213h-172zM250 272l45 457h80l45 -457v-692h-170v692z" />
<glyph unicode="&#xa2;" d="M106 518q0 252 119 406.5t328 177.5v184h86v-182q180 -12 281.5 -113.5t111.5 -277.5h-172q-10 104 -68.5 164.5t-152.5 68.5v-837q197 23 233 260h172q-10 -186 -117.5 -296t-287.5 -120v-199h-86v201q-209 18 -328 167.5t-119 395.5zM285 518q0 -174 69.5 -279.5 t198.5 -125.5v831q-268 -49 -268 -426z" />
<glyph unicode="&#xa3;" d="M53 657v113h166q-35 57 -56.5 97t-32.5 70t-15 56.5t-4 61.5q0 92 37.5 173t103 139t155 92t191.5 34q135 0 240.5 -56.5t158.5 -156.5q27 -49 38.5 -110.5t13.5 -151.5h-181q-8 315 -278 315q-131 0 -210 -71.5t-79 -188.5q0 -29 3 -52.5t12.5 -50t26.5 -60t46 -83.5 q6 -10 12.5 -19t10.5 -20q6 -10 6 -9t4 -9h328v-113h-279q31 -90 31 -145q0 -41 -12.5 -80t-40 -84t-73.5 -99t-116 -124q119 80 250 80q41 0 74.5 -6t93.5 -25q66 -18 99.5 -25.5t62.5 -7.5q80 0 170 62l86 -135q-61 -59 -125 -87t-144 -28q-29 0 -55.5 3t-59 10 t-76.5 21.5t-108 37.5q-68 23 -135 22q-104 0 -223 -76l-98 135q70 61 119 111.5t79.5 96.5t44 91.5t13.5 92.5q0 80 -49 159h-226z" />
<glyph unicode="&#xa4;" d="M137 1020l115 108l113 -112q90 53 198 53q119 0 201 -57l121 108l116 -119l-112 -112q25 -41 39 -90t14 -101q0 -106 -59 -198l110 -111l-119 -110l-108 108q-84 -61 -205 -61q-51 0 -101 13t-91 38l-105 -105l-114 117l98 100q-31 41 -48.5 96.5t-17.5 112.5 q0 55 17.5 109.5t48.5 99.5zM344 696q0 -43 17.5 -82t47 -68.5t69.5 -46t85 -16.5t84 16.5t68.5 46t47 67.5t17.5 81q0 45 -17.5 85t-46 69t-69.5 46t-86 17t-84 -17t-68.5 -46t-47 -68t-17.5 -84z" />
<glyph unicode="&#xa5;" d="M23 1452h174l378 -659l367 659h174l-411 -727h309v-104h-348v-158h348v-105h-348v-358h-181v358h-352v105h352v158h-352v104h309z" />
<glyph unicode="&#xa6;" horiz-adv-x="532" d="M205 387h123v-821h-123v821zM205 672v821h123v-821h-123z" />
<glyph unicode="&#xa7;" d="M88 639q0 104 50 176t165 131q-47 53 -68.5 101.5t-21.5 107.5q0 70 29.5 132.5t80 107.5t120 71.5t149.5 26.5t145.5 -26.5t113.5 -73.5t73.5 -114t25.5 -149v-40v-17h-172v19v34q0 96 -53 152.5t-145 56.5q-78 0 -130.5 -49t-52.5 -125q0 -45 26 -79.5t91 -77.5 l299 -193q61 -41 104.5 -78t70 -78t37.5 -86t11 -100q0 -238 -223 -319q61 -70 85 -123.5t24 -118.5q0 -74 -29 -137.5t-80 -109.5t-121.5 -71.5t-152.5 -25.5q-176 0 -277.5 102.5t-103.5 280.5v24h174q0 -61 8 -97t31 -69q61 -84 170 -84q88 0 142 49.5t54 127.5 q0 53 -26.5 96t-85.5 84l-349 239q-100 72 -144 146t-44 176zM250 672q0 -31 6 -55.5t21.5 -47t41 -46t66.5 -54.5l340 -252q72 39 110.5 93.5t38.5 117.5q0 123 -149 227l-330 224q-80 -53 -112.5 -98.5t-32.5 -108.5z" />
<glyph unicode="&#xa8;" horiz-adv-x="681" d="M61 1253v211h213v-211h-213zM393 1253v211h213v-211h-213z" />
<glyph unicode="&#xa9;" horiz-adv-x="1509" d="M-27 737q0 162 61.5 304.5t168 249t249 168t304.5 61.5t304 -61.5t248.5 -168t168 -248t61.5 -303.5q0 -164 -61.5 -307t-169 -249.5t-252 -167t-310.5 -60.5q-158 0 -298 62.5t-245.5 169t-167 249t-61.5 301.5zM113 737q0 -133 50 -252.5t137 -209t202.5 -141.5 t245.5 -52q137 0 255.5 51t206.5 140t138.5 209t50.5 257q0 135 -50.5 254t-138.5 208t-204.5 140.5t-249.5 51.5t-250 -51.5t-205 -140.5t-138 -209t-50 -255zM371 731q0 109 28.5 198t82 151.5t128 97t164.5 34.5q137 0 220 -76.5t120 -240.5h-145q-27 102 -73 146 t-128 44q-117 0 -186.5 -95t-69.5 -257t74 -254q33 -43 83 -68.5t99 -25.5q176 0 217 254h145q-18 -96 -37.5 -148.5t-52.5 -95.5q-100 -137 -272 -137q-88 0 -162 35t-126 97.5t-80.5 149.5t-28.5 191z" />
<glyph unicode="&#xaa;" horiz-adv-x="757" d="M76 1014q0 133 123 180q25 10 82 20.5t116 14.5t80 18.5t21 48.5v27q0 90 -138 90q-70 0 -99.5 -24.5t-39.5 -90.5h-121q4 111 71 166.5t194 55.5q250 0 249 -193v-366q0 -47 48 -48q8 0 20 7v-91q-20 -8 -33.5 -10t-32.5 -2q-51 0 -76.5 20.5t-35.5 67.5 q-100 -88 -215 -88q-98 0 -155.5 52.5t-57.5 144.5zM88 621v104h567v-104h-567zM195 1020q0 -47 30.5 -71.5t85.5 -24.5q76 0 131.5 40t55.5 95v104q-10 -4 -21.5 -8t-29 -7t-42 -7t-63.5 -11q-80 -10 -113.5 -35.5t-33.5 -74.5z" />
<glyph unicode="&#xab;" d="M201 465v182l311 250v-170l-217 -170l217 -170v-170zM621 465v182l311 250v-170l-217 -170l217 -170v-170z" />
<glyph unicode="&#xac;" horiz-adv-x="1196" d="M82 625v143h1032v-592h-143v449h-889z" />
<glyph unicode="&#xad;" horiz-adv-x="681" d="M94 492v147h488v-147h-488z" />
<glyph unicode="&#xae;" horiz-adv-x="1509" d="M-27 737q0 162 61.5 304.5t168 249t249 168t304.5 61.5t304 -61.5t248.5 -168t168 -248t61.5 -303.5q0 -164 -61.5 -307t-169 -249.5t-252 -167t-310.5 -60.5q-158 0 -298 62.5t-245.5 169t-167 249t-61.5 301.5zM113 737q0 -133 50 -252.5t137 -209t202.5 -141.5 t245.5 -52q137 0 255.5 51t206.5 140t138.5 209t50.5 257q0 135 -50.5 254t-138.5 208t-204.5 140.5t-249.5 51.5t-250 -51.5t-205 -140.5t-138 -209t-50 -255zM414 287v911h422q289 0 288 -258q0 -35 -5 -62.5t-17 -51t-33.5 -45t-54.5 -44.5q29 -18 46 -35.5t27.5 -42 t14.5 -60.5t4 -91q0 -45 3 -72.5t8 -46t13.5 -30t22.5 -21.5v-51h-162q-14 33 -22 73.5t-8 83.5l2 82q0 74 -31 107t-101 33h-274v-379h-143zM557 795h264q80 0 117 32.5t37 104.5t-36 104.5t-118 32.5h-264v-274z" />
<glyph unicode="&#xaf;" horiz-adv-x="681" d="M57 1292v144h561v-144h-561z" />
<glyph unicode="&#xb0;" horiz-adv-x="1241" d="M309 1096q0 63 24.5 119.5t66.5 98.5t98.5 66.5t122.5 24.5q63 0 119.5 -24.5t98.5 -66.5t66.5 -98.5t24.5 -119.5q0 -66 -24.5 -122t-66.5 -98t-99.5 -67t-123.5 -25q-63 0 -118.5 25t-97.5 68t-66.5 99t-24.5 120zM426 1096q0 -41 15.5 -76t41 -61.5t60.5 -42t73 -15.5 q84 0 140.5 56.5t56.5 138.5q0 39 -15.5 74.5t-41 61t-61 41t-74.5 15.5q-41 0 -77 -15.5t-61.5 -41t-41 -61t-15.5 -74.5z" />
<glyph unicode="&#xb1;" horiz-adv-x="1196" d="M102 -23v144h992v-144h-992zM102 709v143h424v424h144v-424h424v-143h-424v-424h-144v424h-424z" />
<glyph unicode="&#xb2;" horiz-adv-x="718" d="M39 582q4 74 17.5 129t43 98t77.5 80t122 76l119 63q121 66 121 162q0 66 -49.5 109.5t-124.5 43.5q-51 0 -92.5 -21.5t-61.5 -61.5q-10 -20 -15.5 -46t-9.5 -73h-127q8 311 310 311q133 0 216 -71.5t83 -186.5q0 -164 -197 -264l-129 -66q-66 -35 -98.5 -69.5 t-50.5 -94.5h469v-118h-623z" />
<glyph unicode="&#xb3;" horiz-adv-x="718" d="M33 844h127q4 -96 49 -139t137 -43q88 0 136 44t48 121q0 147 -188 148h-66v104q131 0 178.5 27t47.5 98q0 66 -41 102.5t-115 36.5q-53 0 -92 -20t-57 -55q-10 -18 -13.5 -42t-3.5 -65h-129q6 291 295 291q133 0 209 -64.5t76 -181.5q0 -121 -117 -174q145 -49 145 -205 q0 -125 -86 -199.5t-231 -74.5q-147 0 -228 74.5t-81 216.5z" />
<glyph unicode="&#xb4;" horiz-adv-x="681" d="M188 1212l197 304h231l-305 -304h-123z" />
<glyph unicode="&#xb5;" d="M133 -451v1524h170v-760q0 -98 59.5 -154.5t159.5 -56.5q135 0 214 98.5t79 264.5v608h170v-893q0 -84 92 -84h13.5t23.5 4v-129q-41 -10 -64.5 -14t-52.5 -4q-170 0 -176 170q-123 -170 -334 -170q-111 0 -184 53v-457h-170z" />
<glyph unicode="&#xb6;" horiz-adv-x="1099" d="M98 1001q0 104 36 193.5t97.5 156t145.5 104.5t180 38h512v-131h-117v-1724h-131v1724h-168v-1724h-131v892q-88 4 -148.5 28t-117.5 71q-74 66 -116 164t-42 208z" />
<glyph unicode="&#xb7;" horiz-adv-x="569" d="M178 618v256h254v-256h-254z" />
<glyph unicode="&#xb8;" horiz-adv-x="681" d="M80 -369l43 82l18 -8q35 -18 60.5 -29.5t46 -17.5t38 -9t38.5 -3q47 0 78.5 25.5t31.5 66.5q0 76 -94 76q-18 0 -31.5 -3.5t-32.5 -11.5l-24 13l86 188h78l-47 -115q20 4 31.5 4h23.5q78 0 121 -35.5t43 -101.5q0 -90 -67.5 -140t-184.5 -50q-31 0 -56.5 3t-54 10 t-63.5 20.5t-82 35.5z" />
<glyph unicode="&#xb9;" horiz-adv-x="718" d="M125 1188v94l31 2q55 6 90 14.5t57.5 25.5t36.5 48t27 80h88v-870h-127v606h-203z" />
<glyph unicode="&#xba;" horiz-adv-x="747" d="M82 1167q0 170 75 261.5t216 91.5t216 -91.5t75 -265.5q0 -166 -76 -256t-215 -90q-141 0 -216 91t-75 259zM104 621v104h539v-104h-539zM201 1169q0 -117 46 -181t126 -64t126 64.5t46 176.5q0 117 -45 182.5t-127 65.5q-80 0 -126 -64.5t-46 -179.5z" />
<glyph unicode="&#xbb;" d="M201 217v170l221 170l-221 170v170l315 -248v-182zM608 217v170l221 170l-221 170v170l316 -248v-182z" />
<glyph unicode="&#xbc;" horiz-adv-x="1779" d="M125 1188v94l31 2q55 6 90 14.5t57.5 25.5t36.5 48t27 80h88v-870h-127v606h-203zM391 -41l926 1493h119l-926 -1493h-119zM1090 205v121l417 544h95v-557h137v-108h-137v-205h-127v205h-385zM1210 313h265v349z" />
<glyph unicode="&#xbd;" horiz-adv-x="1779" d="M125 1188v94l31 2q55 6 90 14.5t57.5 25.5t36.5 48t27 80h88v-870h-127v606h-203zM342 -41l926 1493h118l-925 -1493h-119zM1100 0q4 74 17 129t43 98t78 80t122 76l119 63q121 66 120 162q0 66 -49 110t-125 44q-51 0 -92 -21.5t-61 -62.5q-10 -20 -15.5 -46t-9.5 -73 h-127q8 311 310 311q133 0 216 -71.5t83 -186.5q0 -164 -197 -264l-129 -65q-66 -35 -98.5 -70t-51.5 -94h469v-119h-622z" />
<glyph unicode="&#xbe;" horiz-adv-x="1779" d="M33 844h127q4 -96 49 -139t137 -43q88 0 136 44t48 121q0 147 -188 148h-66v104q131 0 178.5 27t47.5 98q0 66 -41 102.5t-115 36.5q-53 0 -92 -20t-57 -55q-10 -18 -13.5 -42t-3.5 -65h-129q6 291 295 291q133 0 209 -64.5t76 -181.5q0 -121 -117 -174q145 -49 145 -205 q0 -125 -86 -199.5t-231 -74.5q-147 0 -228 74.5t-81 216.5zM412 -41l925 1493h119l-926 -1493h-118zM1090 205v121l417 544h95v-557h137v-108h-137v-205h-127v205h-385zM1210 313h265v349z" />
<glyph unicode="&#xbf;" horiz-adv-x="1251" d="M195 -51q0 51 10 95t34.5 87t63.5 87t96 97q53 49 85 82t49.5 59.5t23.5 52.5t6 60v97h185v-113q0 -55 -12.5 -95t-45.5 -83q-14 -18 -23.5 -29.5t-23.5 -26t-39.5 -37t-71.5 -63.5q-82 -72 -117.5 -135.5t-35.5 -134.5q0 -104 71.5 -169t192.5 -65q139 0 201.5 77 t62.5 243h174q0 -479 -448 -479q-100 0 -181 27.5t-138.5 78.5t-88 124t-30.5 163zM563 860v213h185v-213h-185z" />
<glyph unicode="&#xc0;" horiz-adv-x="1366" d="M35 0l532 1493h246l524 -1493h-213l-153 449h-576l-157 -449h-203zM391 1923h232l196 -303h-123zM442 608h476l-230 680z" />
<glyph unicode="&#xc1;" horiz-adv-x="1366" d="M35 0l532 1493h246l524 -1493h-213l-153 449h-576l-157 -449h-203zM442 608h476l-230 680zM561 1620l197 303h231l-305 -303h-123z" />
<glyph unicode="&#xc2;" horiz-adv-x="1366" d="M35 0l532 1493h246l524 -1493h-213l-153 449h-576l-157 -449h-203zM393 1618l197 307h194l197 -307h-129l-166 197l-162 -197h-131zM442 608h476l-230 680z" />
<glyph unicode="&#xc3;" horiz-adv-x="1366" d="M35 0l532 1493h246l524 -1493h-213l-153 449h-576l-157 -449h-203zM365 1665q16 102 62 156.5t114 54.5q16 0 28.5 -1t26.5 -5t34.5 -12.5t53.5 -20.5q39 -16 75 -25.5t54 -9.5q51 0 76 74h119q-31 -213 -183 -213q-14 0 -26.5 2t-30.5 7t-46 15.5t-71 26.5 q-72 27 -100 27q-49 0 -68 -76h-118zM442 608h476l-230 680z" />
<glyph unicode="&#xc4;" horiz-adv-x="1366" d="M35 0l532 1493h246l524 -1493h-213l-153 449h-576l-157 -449h-203zM414 1661v211h213v-211h-213zM442 608h476l-230 680zM745 1661v211h213v-211h-213z" />
<glyph unicode="&#xc5;" horiz-adv-x="1366" d="M35 0l532 1493h246l524 -1493h-213l-153 449h-576l-157 -449h-203zM442 608h476l-230 680zM506 1774q0 74 53 126t127 52q76 0 128 -52.5t52 -127.5q0 -74 -53 -126.5t-127 -52.5q-76 0 -128 52.5t-52 128.5zM596 1772q0 -35 26.5 -62t63.5 -27t63.5 27t26.5 62 q0 39 -25.5 64.5t-64.5 25.5q-37 0 -63.5 -27t-26.5 -63z" />
<glyph unicode="&#xc6;" horiz-adv-x="2048" d="M23 0l612 1493h1274v-168h-760v-477h721v-168h-721v-512h797v-168h-988v438h-550l-175 -438h-210zM471 606h487v719h-204z" />
<glyph unicode="&#xc7;" horiz-adv-x="1478" d="M98 729q0 182 53.5 337t155.5 265q168 186 473 187q487 0 576 -488h-195q-18 86 -43.5 139.5t-70.5 92.5q-47 41 -124 64.5t-163 23.5q-109 0 -196 -43t-148.5 -123t-94 -195t-32.5 -258q0 -141 33.5 -253.5t97 -192.5t154 -123t200.5 -43q125 0 216 52t138 151 q20 45 35 97t27 126h196q-68 -592 -610 -592l-26 -68q20 4 30.5 4h24.5q78 0 121 -35.5t43 -101.5q0 -88 -67.5 -139t-184.5 -51q-31 0 -56.5 3t-54 10t-63.5 20.5t-82 35.5l43 82l18 -8q35 -18 60.5 -29.5t46 -18.5t38 -9t38.5 -2q47 0 78.5 25.5t31.5 66.5q0 76 -94 76 q-18 0 -31.5 -3.5t-32.5 -13.5l-22 15l63 141q-61 8 -105 18.5t-80 23.5t-67.5 30.5t-66.5 44.5q-135 102 -208 274t-73 385z" />
<glyph unicode="&#xc8;" horiz-adv-x="1366" d="M184 0v1493h1035v-168h-844v-477h813v-168h-813v-512h880v-168h-1071zM424 1923h231l197 -303h-123z" />
<glyph unicode="&#xc9;" horiz-adv-x="1366" d="M184 0v1493h1035v-168h-844v-477h813v-168h-813v-512h880v-168h-1071zM553 1620l197 303h231l-305 -303h-123z" />
<glyph unicode="&#xca;" horiz-adv-x="1366" d="M184 0v1493h1035v-168h-844v-477h813v-168h-813v-512h880v-168h-1071zM412 1618l196 307h195l196 -307h-129l-165 197l-162 -197h-131z" />
<glyph unicode="&#xcb;" horiz-adv-x="1366" d="M184 0v1493h1035v-168h-844v-477h813v-168h-813v-512h880v-168h-1071zM432 1661v211h213v-211h-213zM764 1661v211h213v-211h-213z" />
<glyph unicode="&#xcc;" horiz-adv-x="569" d="M2 1923h231l197 -303h-123zM205 0v1493h192v-1493h-192z" />
<glyph unicode="&#xcd;" horiz-adv-x="569" d="M145 1620l197 303h231l-305 -303h-123zM205 0v1493h192v-1493h-192z" />
<glyph unicode="&#xce;" horiz-adv-x="569" d="M-2 1618l197 307h194l197 -307h-129l-166 197l-162 -197h-131zM205 0v1493h192v-1493h-192z" />
<glyph unicode="&#xcf;" horiz-adv-x="569" d="M18 1647v211h213v-211h-213zM205 0v1493h192v-1493h-192zM350 1647v211h213v-211h-213z" />
<glyph unicode="&#xd0;" horiz-adv-x="1478" d="M41 694v137h141v662h578q141 0 253.5 -51t190.5 -147.5t120 -234.5t42 -312t-42 -312.5t-120 -236t-190.5 -148.5t-253.5 -51h-578v694h-141zM373 168h354q221 0 335 146.5t114 433.5t-113 432t-336 145h-354v-494h350v-137h-350v-526z" />
<glyph unicode="&#xd1;" horiz-adv-x="1478" d="M156 0v1493h206l781 -1221v1221h180v-1493h-215l-772 1210v-1210h-180zM432 1665q16 102 62.5 156.5t113.5 54.5q16 0 28.5 -1t27 -5t35 -12.5t53.5 -20.5q39 -16 74.5 -25.5t54.5 -9.5q51 0 75 74h119q-31 -213 -182 -213q-14 0 -26.5 2t-31 7t-46 15.5t-70.5 26.5 q-72 27 -101 27q-49 0 -67 -76h-119z" />
<glyph unicode="&#xd2;" horiz-adv-x="1593" d="M78 735q0 174 52 318.5t146.5 248t227.5 160t293 56.5q164 0 298 -56.5t228 -161t145.5 -251t51.5 -326.5q0 -184 -68 -346t-190 -266q-92 -78 -209 -118t-254 -40q-162 0 -295 56.5t-227.5 158.5t-146.5 246.5t-52 320.5zM268 735q0 -139 38 -251.5t107.5 -193.5 t167 -125t218.5 -44q119 0 216 44t166.5 124t108.5 191.5t39 246.5q0 141 -38 257t-107.5 197t-167.5 125t-219 44q-119 0 -216.5 -44t-167 -125t-107.5 -195t-38 -251zM504 1923h231l197 -303h-123z" />
<glyph unicode="&#xd3;" horiz-adv-x="1593" d="M78 735q0 174 52 318.5t146.5 248t227.5 160t293 56.5q164 0 298 -56.5t228 -161t145.5 -251t51.5 -326.5q0 -184 -68 -346t-190 -266q-92 -78 -209 -118t-254 -40q-162 0 -295 56.5t-227.5 158.5t-146.5 246.5t-52 320.5zM268 735q0 -139 38 -251.5t107.5 -193.5 t167 -125t218.5 -44q119 0 216 44t166.5 124t108.5 191.5t39 246.5q0 141 -38 257t-107.5 197t-167.5 125t-219 44q-119 0 -216.5 -44t-167 -125t-107.5 -195t-38 -251zM659 1620l197 303h231l-305 -303h-123z" />
<glyph unicode="&#xd4;" horiz-adv-x="1593" d="M78 735q0 174 52 318.5t146.5 248t227.5 160t293 56.5q164 0 298 -56.5t228 -161t145.5 -251t51.5 -326.5q0 -184 -68 -346t-190 -266q-92 -78 -209 -118t-254 -40q-162 0 -295 56.5t-227.5 158.5t-146.5 246.5t-52 320.5zM268 735q0 -139 38 -251.5t107.5 -193.5 t167 -125t218.5 -44q119 0 216 44t166.5 124t108.5 191.5t39 246.5q0 141 -38 257t-107.5 197t-167.5 125t-219 44q-119 0 -216.5 -44t-167 -125t-107.5 -195t-38 -251zM506 1618l196 307h195l197 -307h-129l-166 197l-162 -197h-131z" />
<glyph unicode="&#xd5;" horiz-adv-x="1593" d="M78 735q0 174 52 318.5t146.5 248t227.5 160t293 56.5q164 0 298 -56.5t228 -161t145.5 -251t51.5 -326.5q0 -184 -68 -346t-190 -266q-92 -78 -209 -118t-254 -40q-162 0 -295 56.5t-227.5 158.5t-146.5 246.5t-52 320.5zM268 735q0 -139 38 -251.5t107.5 -193.5 t167 -125t218.5 -44q119 0 216 44t166.5 124t108.5 191.5t39 246.5q0 141 -38 257t-107.5 197t-167.5 125t-219 44q-119 0 -216.5 -44t-167 -125t-107.5 -195t-38 -251zM483 1665q16 102 62.5 156.5t113.5 54.5q16 0 28.5 -1t27 -5t35 -12.5t53.5 -20.5q39 -16 74.5 -25.5 t54.5 -9.5q51 0 76 74h118q-31 -213 -182 -213q-14 0 -26.5 2t-31 7t-46 15.5t-70.5 26.5q-72 27 -100 27q-49 0 -68 -76h-119z" />
<glyph unicode="&#xd6;" horiz-adv-x="1593" d="M78 735q0 174 52 318.5t146.5 248t227.5 160t293 56.5q164 0 298 -56.5t228 -161t145.5 -251t51.5 -326.5q0 -184 -68 -346t-190 -266q-92 -78 -209 -118t-254 -40q-162 0 -295 56.5t-227.5 158.5t-146.5 246.5t-52 320.5zM268 735q0 -139 38 -251.5t107.5 -193.5 t167 -125t218.5 -44q119 0 216 44t166.5 124t108.5 191.5t39 246.5q0 141 -38 257t-107.5 197t-167.5 125t-219 44q-119 0 -216.5 -44t-167 -125t-107.5 -195t-38 -251zM526 1661v211h213v-211h-213zM858 1661v211h213v-211h-213z" />
<glyph unicode="&#xd7;" horiz-adv-x="1196" d="M195 172l301 301l-299 299l100 100l299 -297l301 299l100 -102l-299 -299l301 -301l-102 -102l-301 301l-299 -299z" />
<glyph unicode="&#xd8;" horiz-adv-x="1593" d="M61 39l166 182q-156 213 -155 516q0 174 52 318.5t147.5 247t227.5 159t294 56.5q281 0 471 -166l178 194l82 -73l-183 -199q84 -104 128 -242.5t44 -298.5q0 -176 -52 -319.5t-147 -245.5t-227.5 -158.5t-293.5 -56.5q-295 0 -494 184l-158 -172zM262 737 q0 -215 94 -377l787 859q-145 131 -350 131q-119 0 -217.5 -44t-168 -125t-107.5 -194t-38 -250zM422 272q152 -152 371 -151q119 0 217 44t167.5 125t107.5 193.5t38 249.5q0 233 -109 402z" />
<glyph unicode="&#xd9;" horiz-adv-x="1478" d="M174 444v1049h191v-1049q0 -86 26.5 -144t81.5 -101q109 -78 272 -78q180 0 282.5 86t102.5 237v1049h191v-1049q0 -113 -41 -202.5t-115.5 -154t-181 -99.5t-238.5 -35q-133 0 -238.5 33.5t-179 98.5t-113.5 155t-40 204zM453 1923h231l197 -303h-123z" />
<glyph unicode="&#xda;" horiz-adv-x="1478" d="M174 444v1049h191v-1049q0 -86 26.5 -144t81.5 -101q109 -78 272 -78q180 0 282.5 86t102.5 237v1049h191v-1049q0 -113 -41 -202.5t-115.5 -154t-181 -99.5t-238.5 -35q-133 0 -238.5 33.5t-179 98.5t-113.5 155t-40 204zM596 1620l197 303h231l-305 -303h-123z" />
<glyph unicode="&#xdb;" horiz-adv-x="1478" d="M174 444v1049h191v-1049q0 -86 26.5 -144t81.5 -101q109 -78 272 -78q180 0 282.5 86t102.5 237v1049h191v-1049q0 -113 -41 -202.5t-115.5 -154t-181 -99.5t-238.5 -35q-133 0 -238.5 33.5t-179 98.5t-113.5 155t-40 204zM455 1618l196 307h195l196 -307h-129l-165 197 l-162 -197h-131z" />
<glyph unicode="&#xdc;" horiz-adv-x="1478" d="M174 444v1049h191v-1049q0 -86 26.5 -144t81.5 -101q109 -78 272 -78q180 0 282.5 86t102.5 237v1049h191v-1049q0 -113 -41 -202.5t-115.5 -154t-181 -99.5t-238.5 -35q-133 0 -238.5 33.5t-179 98.5t-113.5 155t-40 204zM475 1661v211h213v-211h-213zM807 1661v211h213 v-211h-213z" />
<glyph unicode="&#xdd;" horiz-adv-x="1363" d="M27 1493h235l438 -727l426 727h228l-561 -907v-586h-191v586zM551 1620l197 303h231l-305 -303h-123z" />
<glyph unicode="&#xde;" horiz-adv-x="1363" d="M186 0v1493h191v-246h426q215 0 337 -114.5t122 -319.5q0 -94 -31 -172t-86 -134t-131 -88t-168 -32h-469v-387h-191zM377 555h397q135 0 209 68.5t74 193.5q0 123 -74 192.5t-209 69.5h-397v-524z" />
<glyph unicode="&#xdf;" horiz-adv-x="1251" d="M258 0v1102q0 98 25.5 163.5t81.5 114.5q63 53 147 83t178 30q92 0 167 -27.5t128 -77t82 -119t29 -153.5q0 -111 -54.5 -181.5t-169.5 -113.5q150 -51 218.5 -140t68.5 -232q0 -113 -31.5 -204t-91 -154.5t-144.5 -97.5t-192 -34q-27 0 -45 2t-45 6v160h17h55 q135 0 217 85t82 224q0 94 -40 160t-112 94q-33 14 -74.5 19.5t-107.5 5.5h-29v168h19q125 0 203 63.5t78 163.5q0 98 -68 160.5t-174 62.5q-113 0 -180.5 -62.5t-67.5 -168.5v-1102h-170z" />
<glyph unicode="&#xe0;" d="M86 270q0 213 199 291q25 8 46 15.5t56 13.5t89 13t142 20q102 12 140.5 38.5t38.5 79.5v45q0 78 -61.5 119t-178.5 41q-121 0 -181.5 -46t-70.5 -144h-172q4 84 21.5 136t58.5 93q55 57 145.5 88t202.5 31q201 0 303.5 -75t102.5 -218v-631q0 -84 92 -84h15t22 4v-129 q-43 -10 -65.5 -14t-51.5 -4q-84 0 -125 37t-51 121q-92 -84 -177 -121t-188 -37q-164 0 -258 85t-94 232zM264 274q0 -82 55.5 -127t155.5 -45q147 0 254 97q39 35 53.5 65.5t14.5 73.5v192q-23 -10 -42.5 -17t-48 -13t-72.5 -13.5t-112 -15.5q-139 -20 -198.5 -65.5 t-59.5 -131.5zM281 1516h231l197 -304h-123z" />
<glyph unicode="&#xe1;" d="M86 270q0 213 199 291q25 8 46 15.5t56 13.5t89 13t142 20q102 12 140.5 38.5t38.5 79.5v45q0 78 -61.5 119t-178.5 41q-121 0 -181.5 -46t-70.5 -144h-172q4 84 21.5 136t58.5 93q55 57 145.5 88t202.5 31q201 0 303.5 -75t102.5 -218v-631q0 -84 92 -84h15t22 4v-129 q-43 -10 -65.5 -14t-51.5 -4q-84 0 -125 37t-51 121q-92 -84 -177 -121t-188 -37q-164 0 -258 85t-94 232zM264 274q0 -82 55.5 -127t155.5 -45q147 0 254 97q39 35 53.5 65.5t14.5 73.5v192q-23 -10 -42.5 -17t-48 -13t-72.5 -13.5t-112 -15.5q-139 -20 -198.5 -65.5 t-59.5 -131.5zM424 1212l197 304h231l-305 -304h-123z" />
<glyph unicode="&#xe2;" d="M86 270q0 213 199 291q25 8 46 15.5t56 13.5t89 13t142 20q102 12 140.5 38.5t38.5 79.5v45q0 78 -61.5 119t-178.5 41q-121 0 -181.5 -46t-70.5 -144h-172q4 84 21.5 136t58.5 93q55 57 145.5 88t202.5 31q201 0 303.5 -75t102.5 -218v-631q0 -84 92 -84h15t22 4v-129 q-43 -10 -65.5 -14t-51.5 -4q-84 0 -125 37t-51 121q-92 -84 -177 -121t-188 -37q-164 0 -258 85t-94 232zM264 274q0 -82 55.5 -127t155.5 -45q147 0 254 97q39 35 53.5 65.5t14.5 73.5v192q-23 -10 -42.5 -17t-48 -13t-72.5 -13.5t-112 -15.5q-139 -20 -198.5 -65.5 t-59.5 -131.5zM270 1210l197 308h195l196 -308h-129l-166 197l-162 -197h-131z" />
<glyph unicode="&#xe3;" d="M86 270q0 213 199 291q25 8 46 15.5t56 13.5t89 13t142 20q102 12 140.5 38.5t38.5 79.5v45q0 78 -61.5 119t-178.5 41q-121 0 -181.5 -46t-70.5 -144h-172q4 84 21.5 136t58.5 93q55 57 145.5 88t202.5 31q201 0 303.5 -75t102.5 -218v-631q0 -84 92 -84h15t22 4v-129 q-43 -10 -65.5 -14t-51.5 -4q-84 0 -125 37t-51 121q-92 -84 -177 -121t-188 -37q-164 0 -258 85t-94 232zM242 1257q16 102 62 156.5t114 54.5q16 0 28.5 -1t26.5 -5t34.5 -12t53.5 -20q39 -16 75 -25.5t54 -9.5q51 0 76 73h119q-31 -213 -183 -213q-14 0 -26 2.5 t-30.5 7.5t-46.5 15t-71 27q-72 27 -100 26q-49 0 -68 -76h-118zM264 274q0 -82 55.5 -127t155.5 -45q147 0 254 97q39 35 53.5 65.5t14.5 73.5v192q-23 -10 -42.5 -17t-48 -13t-72.5 -13.5t-112 -15.5q-139 -20 -198.5 -65.5t-59.5 -131.5z" />
<glyph unicode="&#xe4;" d="M86 270q0 213 199 291q25 8 46 15.5t56 13.5t89 13t142 20q102 12 140.5 38.5t38.5 79.5v45q0 78 -61.5 119t-178.5 41q-121 0 -181.5 -46t-70.5 -144h-172q4 84 21.5 136t58.5 93q55 57 145.5 88t202.5 31q201 0 303.5 -75t102.5 -218v-631q0 -84 92 -84h15t22 4v-129 q-43 -10 -65.5 -14t-51.5 -4q-84 0 -125 37t-51 121q-92 -84 -177 -121t-188 -37q-164 0 -258 85t-94 232zM264 274q0 -82 55.5 -127t155.5 -45q147 0 254 97q39 35 53.5 65.5t14.5 73.5v192q-23 -10 -42.5 -17t-48 -13t-72.5 -13.5t-112 -15.5q-139 -20 -198.5 -65.5 t-59.5 -131.5zM287 1253v211h213v-211h-213zM618 1253v211h213v-211h-213z" />
<glyph unicode="&#xe5;" d="M86 270q0 213 199 291q25 8 46 15.5t56 13.5t89 13t142 20q102 12 140.5 38.5t38.5 79.5v45q0 78 -61.5 119t-178.5 41q-121 0 -181.5 -46t-70.5 -144h-172q4 84 21.5 136t58.5 93q55 57 145.5 88t202.5 31q201 0 303.5 -75t102.5 -218v-631q0 -84 92 -84h15t22 4v-129 q-43 -10 -65.5 -14t-51.5 -4q-84 0 -125 37t-51 121q-92 -84 -177 -121t-188 -37q-164 0 -258 85t-94 232zM264 274q0 -82 55.5 -127t155.5 -45q147 0 254 97q39 35 53.5 65.5t14.5 73.5v192q-23 -10 -42.5 -17t-48 -13t-72.5 -13.5t-112 -15.5q-139 -20 -198.5 -65.5 t-59.5 -131.5zM383 1366q0 74 53 126t127 52q76 0 128 -52t52 -128q0 -74 -53 -126t-127 -52q-76 0 -128 52t-52 128zM473 1364q0 -35 26.5 -61.5t63.5 -26.5t63.5 26.5t26.5 61.5q0 39 -25.5 64.5t-64.5 25.5q-37 0 -63.5 -26.5t-26.5 -63.5z" />
<glyph unicode="&#xe6;" horiz-adv-x="1820" d="M70 270q0 213 198 291q49 20 130 34.5t204 25.5q104 10 141 35.5t37 84.5v45q0 160 -241 160q-119 0 -179.5 -46t-70.5 -144h-172q4 84 21.5 136t58.5 93q55 57 145 88t201 31q264 0 358 -168q55 80 149.5 124t204.5 44q154 0 272 -80t165 -217q23 -57 31 -134t8 -194 h-791q2 -84 15.5 -137t45.5 -100q45 -63 111 -97t143 -34q207 0 283 215h172q-35 -176 -154.5 -274.5t-302.5 -98.5q-121 0 -217 45t-149 127l-13.5 22.5t-17.5 30.5q-115 -121 -219.5 -173t-222.5 -52q-158 0 -251 86t-93 231zM248 274q0 -80 54 -126t151 -46q131 0 231 82 q45 35 70.5 72t25.5 66v206q-23 -10 -42 -16t-47.5 -12t-73 -13.5t-111.5 -17.5q-139 -20 -198.5 -64.5t-59.5 -130.5zM944 618h602q0 74 -21.5 134.5t-60.5 103.5t-93 66.5t-120 23.5q-129 0 -213 -89t-94 -239z" />
<glyph unicode="&#xe7;" horiz-adv-x="1024" d="M63 518q0 133 34 241.5t96.5 185.5t150.5 118t197 41q117 0 210 -45t146 -123q29 -43 45 -95.5t23 -127.5h-172q-16 113 -81 173t-173 60q-141 0 -219 -112.5t-78 -317.5q0 -193 79.5 -300t221.5 -107q219 0 262 260h172q-6 -96 -39 -173t-90 -131.5t-135 -83t-172 -28.5 l-27 -68q20 4 31.5 4h25.5q78 0 120 -35.5t42 -101.5q0 -88 -67.5 -139t-184.5 -51q-31 0 -55.5 3t-52 10t-63.5 20.5t-85 33.5l43 84l19 -8q35 -18 60.5 -29.5t46 -17.5t38 -9t37.5 -3q47 0 79 25.5t32 66.5q0 76 -95 76q-18 0 -31.5 -3.5t-31.5 -13.5l-25 15l64 145 q-195 37 -296.5 180.5t-101.5 380.5z" />
<glyph unicode="&#xe8;" d="M82 522q0 133 35 240.5t99.5 183.5t154.5 117t202 41q156 0 274 -79t165 -218q23 -57 31 -134t8 -194h-791q2 -84 15.5 -137t46.5 -100q45 -63 110.5 -97t142.5 -34q209 0 281 215h172q-33 -176 -152.5 -274.5t-306.5 -98.5q-115 0 -205 39t-152 112.5t-96 179t-34 238.5 zM264 618h602q0 72 -21.5 132.5t-60.5 103.5t-93 67.5t-120 24.5q-129 0 -213 -89t-94 -239zM285 1516h231l197 -304h-123z" />
<glyph unicode="&#xe9;" d="M82 522q0 133 35 240.5t99.5 183.5t154.5 117t202 41q156 0 274 -79t165 -218q23 -57 31 -134t8 -194h-791q2 -84 15.5 -137t46.5 -100q45 -63 110.5 -97t142.5 -34q209 0 281 215h172q-33 -176 -152.5 -274.5t-306.5 -98.5q-115 0 -205 39t-152 112.5t-96 179t-34 238.5 zM264 618h602q0 72 -21.5 132.5t-60.5 103.5t-93 67.5t-120 24.5q-129 0 -213 -89t-94 -239zM434 1212l197 304h231l-305 -304h-123z" />
<glyph unicode="&#xea;" d="M82 522q0 133 35 240.5t99.5 183.5t154.5 117t202 41q156 0 274 -79t165 -218q23 -57 31 -134t8 -194h-791q2 -84 15.5 -137t46.5 -100q45 -63 110.5 -97t142.5 -34q209 0 281 215h172q-33 -176 -152.5 -274.5t-306.5 -98.5q-115 0 -205 39t-152 112.5t-96 179t-34 238.5 zM264 618h602q0 72 -21.5 132.5t-60.5 103.5t-93 67.5t-120 24.5q-129 0 -213 -89t-94 -239zM293 1210l196 308h195l197 -308h-129l-166 197l-162 -197h-131z" />
<glyph unicode="&#xeb;" d="M82 522q0 133 35 240.5t99.5 183.5t154.5 117t202 41q156 0 274 -79t165 -218q23 -57 31 -134t8 -194h-791q2 -84 15.5 -137t46.5 -100q45 -63 110.5 -97t142.5 -34q209 0 281 215h172q-33 -176 -152.5 -274.5t-306.5 -98.5q-115 0 -205 39t-152 112.5t-96 179t-34 238.5 zM264 618h602q0 72 -21.5 132.5t-60.5 103.5t-93 67.5t-120 24.5q-129 0 -213 -89t-94 -239zM313 1253v211h213v-211h-213zM645 1253v211h213v-211h-213z" />
<glyph unicode="&#xec;" horiz-adv-x="569" d="M-10 1516h231l197 -304h-123zM193 0v1073h172v-1073h-172z" />
<glyph unicode="&#xed;" horiz-adv-x="569" d="M133 1212l197 304h231l-305 -304h-123zM193 0v1073h172v-1073h-172z" />
<glyph unicode="&#xee;" horiz-adv-x="569" d="M-14 1210l196 308h195l196 -308h-129l-165 197l-162 -197h-131zM193 0v1073h172v-1073h-172z" />
<glyph unicode="&#xef;" horiz-adv-x="569" d="M6 1239v211h213v-211h-213zM193 0v1073h172v-1073h-172zM338 1239v211h213v-211h-213z" />
<glyph unicode="&#xf0;" d="M74 528q0 371 223 508q104 63 223 64q29 0 55.5 -5t73.5 -22q-27 27 -46 46.5t-40.5 38t-48.5 41t-65 56.5l-199 -92l-74 80l174 82q-20 14 -36.5 26.5t-35 23.5t-41 24.5t-55.5 32.5l90 90q25 -10 43.5 -19.5t43 -23t57.5 -34t84 -52.5l198 92l82 -76l-184 -84 q57 -43 101 -82t80 -76t66.5 -76.5t61.5 -84.5q74 -115 106.5 -226.5t32.5 -249.5q0 -281 -124.5 -429t-360.5 -148q-233 0 -359 149.5t-126 425.5zM252 528q0 -197 82 -307t225 -110q141 0 224 109.5t83 301.5q0 201 -81 312.5t-226 111.5q-143 0 -225 -110.5t-82 -307.5z " />
<glyph unicode="&#xf1;" d="M143 0v1073h158v-180q72 113 154 162t202 49q156 0 248 -79t92 -214v-811h-170v743q0 98 -59 154.5t-162 56.5q-133 0 -212 -98t-79 -264v-592h-172zM250 1257q16 102 62 156.5t114 54.5q16 0 28.5 -1t27 -5t35 -12t52.5 -20q39 -16 75 -25.5t54 -9.5q51 0 76 73h119 q-31 -213 -182 -213q-14 0 -26.5 2.5t-31 7.5t-46 15t-70.5 27q-72 27 -101 26q-49 0 -67 -76h-119z" />
<glyph unicode="&#xf2;" d="M74 528q0 272 127 424t356 152q236 0 361.5 -151.5t125.5 -432.5q0 -133 -32.5 -237.5t-96 -178t-153.5 -112.5t-203 -39q-229 0 -357 151.5t-128 423.5zM252 528q0 -197 82 -307t225 -110q141 0 224 109.5t83 301.5q0 201 -81 312.5t-226 111.5q-143 0 -225 -110.5 t-82 -307.5zM270 1516h232l196 -304h-123z" />
<glyph unicode="&#xf3;" d="M74 528q0 272 127 424t356 152q236 0 361.5 -151.5t125.5 -432.5q0 -133 -32.5 -237.5t-96 -178t-153.5 -112.5t-203 -39q-229 0 -357 151.5t-128 423.5zM252 528q0 -197 82 -307t225 -110q141 0 224 109.5t83 301.5q0 201 -81 312.5t-226 111.5q-143 0 -225 -110.5 t-82 -307.5zM414 1212l196 304h232l-305 -304h-123z" />
<glyph unicode="&#xf4;" d="M74 528q0 272 127 424t356 152q236 0 361.5 -151.5t125.5 -432.5q0 -133 -32.5 -237.5t-96 -178t-153.5 -112.5t-203 -39q-229 0 -357 151.5t-128 423.5zM252 528q0 -197 82 -307t225 -110q141 0 224 109.5t83 301.5q0 201 -81 312.5t-226 111.5q-143 0 -225 -110.5 t-82 -307.5zM266 1210l197 308h194l197 -308h-129l-166 197l-162 -197h-131z" />
<glyph unicode="&#xf5;" d="M74 528q0 272 127 424t356 152q236 0 361.5 -151.5t125.5 -432.5q0 -133 -32.5 -237.5t-96 -178t-153.5 -112.5t-203 -39q-229 0 -357 151.5t-128 423.5zM244 1257q16 102 62 156.5t114 54.5q16 0 28.5 -1t26.5 -5t34.5 -12t53.5 -20q39 -16 75 -25.5t54 -9.5q51 0 76 73 h119q-31 -213 -182 -213q-14 0 -26.5 2.5t-31 7.5t-46.5 15t-71 27q-72 27 -100 26q-49 0 -68 -76h-118zM252 528q0 -197 82 -307t225 -110q141 0 224 109.5t83 301.5q0 201 -81 312.5t-226 111.5q-143 0 -225 -110.5t-82 -307.5z" />
<glyph unicode="&#xf6;" d="M74 528q0 272 127 424t356 152q236 0 361.5 -151.5t125.5 -432.5q0 -133 -32.5 -237.5t-96 -178t-153.5 -112.5t-203 -39q-229 0 -357 151.5t-128 423.5zM252 528q0 -197 82 -307t225 -110q141 0 224 109.5t83 301.5q0 201 -81 312.5t-226 111.5q-143 0 -225 -110.5 t-82 -307.5zM287 1253v211h213v-211h-213zM618 1253v211h213v-211h-213z" />
<glyph unicode="&#xf7;" horiz-adv-x="1196" d="M102 412v143h992v-143h-992zM492 0v213h213v-213h-213zM492 754v213h213v-213h-213z" />
<glyph unicode="&#xf8;" horiz-adv-x="1251" d="M37 -4l135 151q-51 76 -74.5 168.5t-23.5 212.5q0 272 128 424t357 152q106 0 188 -32t152 -101l119 133l65 -57l-129 -146q47 -78 68.5 -167t21.5 -206q0 -272 -126.5 -423.5t-356.5 -151.5q-211 0 -334 127l-125 -141zM252 528q0 -72 10 -129t33 -110l489 551 q-41 51 -99 78.5t-126 27.5q-143 0 -225 -110.5t-82 -307.5zM342 209q88 -98 217 -98q143 0 225 110.5t82 306.5q0 133 -37 232z" />
<glyph unicode="&#xf9;" d="M133 246v827h170v-760q0 -98 59.5 -154.5t161.5 -56.5q135 0 214 98.5t79 264.5v608h170v-1073h-153v150q-76 -106 -158 -151.5t-201 -45.5q-158 0 -250 79t-92 214zM266 1516h232l196 -304h-123z" />
<glyph unicode="&#xfa;" d="M133 246v827h170v-760q0 -98 59.5 -154.5t161.5 -56.5q135 0 214 98.5t79 264.5v608h170v-1073h-153v150q-76 -106 -158 -151.5t-201 -45.5q-158 0 -250 79t-92 214zM410 1212l196 304h232l-306 -304h-122z" />
<glyph unicode="&#xfb;" d="M133 246v827h170v-760q0 -98 59.5 -154.5t161.5 -56.5q135 0 214 98.5t79 264.5v608h170v-1073h-153v150q-76 -106 -158 -151.5t-201 -45.5q-158 0 -250 79t-92 214zM268 1210l197 308h194l197 -308h-129l-166 197l-162 -197h-131z" />
<glyph unicode="&#xfc;" d="M133 246v827h170v-760q0 -98 59.5 -154.5t161.5 -56.5q135 0 214 98.5t79 264.5v608h170v-1073h-153v150q-76 -106 -158 -151.5t-201 -45.5q-158 0 -250 79t-92 214zM289 1253v211h213v-211h-213zM621 1253v211h213v-211h-213z" />
<glyph unicode="&#xfd;" horiz-adv-x="1024" d="M41 1073h182l275 -835l297 835h184l-477 -1298q-84 -221 -277 -221q-63 0 -114 26v154q29 -6 48 -9.5t42 -3.5q53 0 83.5 24t53.5 81l65 170zM358 1212l197 304h231l-305 -304h-123z" />
<glyph unicode="&#xfe;" horiz-adv-x="1136" d="M111 -446v1908h170v-522q55 78 140 121t189 43t189.5 -41t145 -118t92 -185.5t32.5 -241.5q0 -129 -32.5 -233.5t-92 -178t-144.5 -113.5t-190 -40q-104 0 -183 38t-146 122v-559h-170zM281 528q0 -94 21.5 -170.5t60 -131t94 -84t123.5 -29.5q70 0 127 29.5t98 84 t63.5 129t22.5 166.5q0 96 -22.5 174t-62.5 133.5t-98 85t-128 29.5q-68 0 -123.5 -29.5t-94 -84t-60 -131t-21.5 -171.5z" />
<glyph unicode="&#xff;" horiz-adv-x="1024" d="M41 1073h182l275 -835l297 835h184l-477 -1298q-84 -221 -277 -221q-63 0 -114 26v154q29 -6 48 -9.5t42 -3.5q53 0 83.5 24t53.5 81l65 170zM231 1253v211h213v-211h-213zM563 1253v211h213v-211h-213z" />
<glyph unicode="&#x152;" horiz-adv-x="2048" d="M88 729q0 422 209 629q78 76 184.5 118t218.5 42q127 0 218.5 -44t156.5 -137v156h879v-168h-688v-487h671v-168h-671v-502h698v-168h-889v152q-72 -100 -162 -146.5t-215 -46.5q-131 0 -241.5 48t-190.5 140q-178 205 -178 582zM279 737q0 -158 24.5 -262t79.5 -188 q111 -160 315 -160q256 0 377 246v731q-121 246 -375 246q-209 0 -315 -154t-106 -459z" />
<glyph unicode="&#x153;" horiz-adv-x="1933" d="M82 530q0 276 125 425t360 149q276 0 402 -217q63 104 165.5 160.5t229.5 56.5q156 0 273.5 -79t164.5 -218q23 -57 31 -134t8 -194h-790q2 -84 15 -137t46 -100q45 -63 110.5 -97t143.5 -34q209 0 281 215h172q-33 -176 -153 -274.5t-304 -98.5q-131 0 -233.5 53 t-163.5 158q-129 -211 -398 -211q-236 0 -360.5 149.5t-124.5 427.5zM260 530q0 -199 82 -309t225 -110t225 110.5t82 302.5q0 201 -81 311.5t-226 110.5q-143 0 -225 -110.5t-82 -305.5zM1055 618h602q0 74 -21.5 134.5t-60.5 103.5t-93.5 66.5t-119.5 23.5 q-131 0 -214 -89t-93 -239z" />
<glyph unicode="&#x178;" horiz-adv-x="1366" d="M27 1493h235l438 -727l426 727h228l-561 -907v-586h-191v586zM426 1661v211h213v-211h-213zM758 1661v211h213v-211h-213z" />
<glyph unicode="&#x2c6;" horiz-adv-x="681" d="M41 1210l197 308h194l197 -308h-129l-166 197l-162 -197h-131z" />
<glyph unicode="&#x2dc;" horiz-adv-x="681" d="M10 1257q16 102 62.5 156.5t113.5 54.5q16 0 28.5 -1t27 -5t35 -12t53.5 -20q39 -16 74.5 -25.5t54.5 -9.5q51 0 76 73h118q-31 -213 -182 -213q-14 0 -26.5 2.5t-31 7.5t-46 15t-70.5 27q-72 27 -100 26q-49 0 -68 -76h-119z" />
<glyph unicode="&#x2000;" horiz-adv-x="976" />
<glyph unicode="&#x2001;" horiz-adv-x="1952" />
<glyph unicode="&#x2002;" horiz-adv-x="976" />
<glyph unicode="&#x2003;" horiz-adv-x="1952" />
<glyph unicode="&#x2004;" horiz-adv-x="650" />
<glyph unicode="&#x2005;" horiz-adv-x="488" />
<glyph unicode="&#x2006;" horiz-adv-x="325" />
<glyph unicode="&#x2007;" horiz-adv-x="325" />
<glyph unicode="&#x2008;" horiz-adv-x="244" />
<glyph unicode="&#x2009;" horiz-adv-x="390" />
<glyph unicode="&#x200a;" horiz-adv-x="108" />
<glyph unicode="&#x2010;" horiz-adv-x="681" d="M94 492v147h488v-147h-488z" />
<glyph unicode="&#x2011;" horiz-adv-x="681" d="M94 492v147h488v-147h-488z" />
<glyph unicode="&#x2012;" horiz-adv-x="681" d="M94 492v147h488v-147h-488z" />
<glyph unicode="&#x2013;" d="M-10 492v147h1159v-147h-1159z" />
<glyph unicode="&#x2014;" horiz-adv-x="2048" d="M-18 492v147h2068v-147h-2068z" />
<glyph unicode="&#x2018;" horiz-adv-x="454" d="M133 977v207q0 123 49 191.5t142 76.5v-78q-100 -14 -99 -184h99v-213h-191z" />
<glyph unicode="&#x2019;" horiz-adv-x="452" d="M131 1018v78q53 8 76.5 51t21.5 133h-98v213h191v-207q0 -123 -49.5 -191.5t-141.5 -76.5z" />
<glyph unicode="&#x201a;" horiz-adv-x="454" d="M131 -184q55 8 80 51t20 133h-98v213h191v-207q0 -123 -49.5 -191.5t-143.5 -76.5v78z" />
<glyph unicode="&#x201c;" horiz-adv-x="681" d="M98 977v207q0 123 49.5 191.5t141.5 76.5v-78q-100 -14 -99 -184h99v-213h-191zM422 977v207q0 123 49 191.5t141 76.5v-78q-100 -14 -98 -184h98v-213h-190z" />
<glyph unicode="&#x201d;" horiz-adv-x="681" d="M100 977v78q53 8 77 51t22 133h-99v213h191v-207q0 -123 -49 -191.5t-142 -76.5zM428 977v78q53 8 76.5 51t21.5 133h-98v213h190v-207q0 -123 -49 -191.5t-141 -76.5z" />
<glyph unicode="&#x201e;" horiz-adv-x="681" d="M96 0v213h191v-207q0 -123 -49.5 -191.5t-141.5 -76.5v78q53 8 77 51t22 133h-99zM424 0v213h190v-207q0 -123 -49 -191.5t-141 -76.5v78q53 8 76.5 51t21.5 133h-98z" />
<glyph unicode="&#x2022;" horiz-adv-x="716" d="M102 707q0 53 20.5 99t55.5 81t81 55.5t99 20.5t100.5 -20.5t82 -55.5t54 -82t19.5 -103q0 -51 -20.5 -97t-55 -79.5t-81.5 -54t-99 -20.5q-53 0 -99 20.5t-81 55t-55.5 80.5t-20.5 100z" />
<glyph unicode="&#x2026;" horiz-adv-x="2048" d="M236 0v213h213v-213h-213zM918 0v213h212v-213h-212zM1599 0v213h213v-213h-213z" />
<glyph unicode="&#x202f;" horiz-adv-x="390" />
<glyph unicode="&#x2039;" horiz-adv-x="681" d="M186 465v182l312 250v-170l-217 -170l217 -170v-170z" />
<glyph unicode="&#x203a;" horiz-adv-x="681" d="M174 217v170l221 170l-221 170v170l315 -248v-182z" />
<glyph unicode="&#x205f;" horiz-adv-x="488" />
<glyph unicode="&#x2122;" horiz-adv-x="2048" d="M129 1380v113h768v-113h-313v-782h-140v782h-315zM1004 598v895h192l270 -741l269 741h186v-895h-137v698l-252 -698h-143l-248 698v-698h-137z" />
<glyph unicode="&#x25fc;" horiz-adv-x="1075" d="M0 0v1075h1075v-1075h-1075z" />
<glyph unicode="&#xfb01;" horiz-adv-x="1024" d="M25 934v139h143v182q0 117 66.5 180.5t185.5 63.5q27 0 47 -2t49 -8v-141q-29 2 -39 2h-20q-119 0 -119 -109v-168h178v-139h-178v-934h-170v934h-143zM723 0v1073h170v-1073h-170zM723 1278v215h170v-215h-170z" />
<glyph unicode="&#xfb02;" horiz-adv-x="1024" d="M35 934v139h143v182q0 117 66.5 180.5t185.5 63.5q27 0 47.5 -2t48.5 -8v-141q-29 2 -39 2h-20q-119 0 -119 -109v-168h178v-139h-178v-934h-170v934h-143zM711 0v1493h170v-1493h-170z" />
</font>
</defs>
</svg>
